<svg xmlns="http://www.w3.org/2000/svg" width="50" height="46"><g fill="none" fill-rule="evenodd" stroke="#C7CCD3" stroke-width="2" transform="translate(0 2)"><path d="M46 3.863H4c-1.626 0-3 1.563-3 3.552v25.033C1 34.437 2.374 36 4 36h42c1.626 0 3-1.563 3-3.552V7.415c0-1.989-1.374-3.552-3-3.552z"/><path stroke-linecap="square" d="M11 43h29"/><path d="M17 36h16v7H17z"/><path stroke-linecap="square" d="M1 31h48"/><path d="M28.565 16a6.997 6.997 0 0 1 3.244 7.657A10.458 10.458 0 0 0 25 21.151c-2.598 0-4.976.943-6.809 2.506A7.019 7.019 0 0 1 18 22.026a6.996 6.996 0 0 1 3.333-5.964"/><path d="M25 20c3.333-2.985 5-6.318 5-10 0-3.682-1.667-7.015-5-10-3.333 2.985-5 6.318-5 10 0 3.682 1.667 7.015 5 10z"/><path d="M21 5.051a5.539 5.539 0 0 0 3.975 1.675A5.54 5.54 0 0 0 29 5"/><circle cx="24.834" cy="11.834" r="1.834"/><path stroke-linecap="square" d="M25 25.5V28M29 25.25V27M21 25.25V27"/></g></svg>