<svg xmlns="http://www.w3.org/2000/svg" xmlns:xlink="http://www.w3.org/1999/xlink" width="205" height="48"><defs><circle id="a" cx="22.5" cy="22.5" r="22.5"/><mask id="b" width="45" height="45" x="0" y="0" fill="#fff"><use xlink:href="#a"/></mask></defs><g fill="none" fill-rule="evenodd" stroke="#C7CCD3"><g stroke-width="2" transform="translate(82 1)"><path d="M45.63 24.815C45.63 12.767 35.862 3 23.814 3 11.767 3 2 12.767 2 24.815"/><path stroke-linecap="square" d="M11 3h10M26 3h10"/><path fill="#FFF" d="M21 0h5v5h-5zM0 23h5v5H0zM43 23h5v5h-5z"/><circle cx="5.5" cy="2.5" r="1.5"/><circle cx="41.5" cy="2.5" r="1.5"/><path d="M29.452 43L33 36.109 24 19l-9 17.109L18.548 43"/><path stroke-linecap="square" d="M16 46h16M22 36h4M24 34V20"/></g><g stroke-width="2" transform="translate(2 3)"><circle cx="10.417" cy="4.167" r="4.167"/><path d="M18.573 42.243H50l-18.423-31.91-13.004 22.523-6.577-11.391L0 42.243h18.573z"/></g><g transform="translate(160 2)"><use stroke-dasharray="91 6" stroke-width="4" mask="url(#b)" xlink:href="#a"/><path stroke-width="2" d="M33.238 23l-16 9.237V13.762z"/></g></g></svg>