<svg xmlns="http://www.w3.org/2000/svg" width="47" height="52"><g fill="none" fill-rule="evenodd" stroke="#C7CCD3" stroke-width="2"><path d="M17 36.836c-5.216-2.348-8.848-7.592-8.848-13.684 0-8.284 6.716-15 15-15 8.284 0 15 6.716 15 15 0 6.21-3.773 11.538-9.152 13.817v4.018H17v-4.15zM23 13.257c-5.381 0-9.743 4.362-9.743 9.743M29 41v4a6 6 0 1 1-12 0v-4"/><path stroke-linecap="square" d="M18 45h5.5M27 45h1M23.41 3V1m11.08 5.252l1.089-1.678m6.482 10.417l1.813-.845m-.173 12.275l1.981.278M3.12 26.42l-1.98.278M4.76 14.99l-1.813-.845m9.384-7.894l-1.089-1.678"/></g></svg>