<svg xmlns="http://www.w3.org/2000/svg" width="48" height="48"><g fill="none" fill-rule="evenodd" stroke="#C7CCD3" stroke-width="2"><path d="M6.3 9.311A22.899 22.899 0 0 0 1 24c0 4.134 1.091 8.107 3.133 11.596l.21.36-2.46 9.182 8.82-2.363.379.257A22.886 22.886 0 0 0 24 47c12.703 0 23-10.297 23-23S36.703 1 24 1c-4.256 0-8.34 1.157-11.9 3.314L6.3 9.31z"/><circle cx="24" cy="24" r="16.32"/><path d="M24.105 40.32c4.064 0 7.36-7.307 7.36-16.32s-3.296-16.32-7.36-16.32-7.358 7.307-7.358 16.32 3.294 16.32 7.358 16.32z"/><path stroke-linecap="square" d="M7.68 24h32.64M11.307 15.84H37.6M11.307 32.16H37.6"/></g></svg>